# xmcd
#
# Track frame offsets:
#	150
#	11320
#	29997
#	48249
#	68807
#	89175
#	104729
#	124302
#	142872
#	160701
#	178220
#	201155
#	226722
#	247494
#
# Disc length: 3549
#
# Revision: 1
# Processed by: cddbd v1.5.1PL0 Copyright (c) Steve Scherf et al.
# Submitted via: ExactAudioCopy v0.90b4
# Normalized: r0:DSETVAR1
#
DISCID=cd0ddb0e
DTITLE=Various Artist - Hot Urban Gospel
DYEAR=2002
DGENRE=Contemporary Christian
TTITLE0=The Wordd - It's All Good
TTITLE1=Mary Mary - Good to Me
TTITLE2=Michael Speaks - I Just Wanna
TTITLE3=Trinitee 5:7 - My Body
TTITLE4=1NC - Nobody
TTITLE5=Nicole C Mullen - Shooby
TTITLE6=Winans Phase 2 - Just for a Day
TTITLE7=Anointed - Revive Us
TTITLE8=Priesthood - Sprinkle Me Luv
TTITLE9=The Raven - The Dawning
TTITLE10=God's Property - Stomp (Remix)
TTITLE11=Kelli Williams - Falling Down
TTITLE12=Kirk Franklin - Revolution (Remix)
TTITLE13=Gospel Ganstaz - I Can See Clearly Now
EXTD=
EXTT0=
EXTT1=
EXTT2=
EXTT3=
EXTT4=
EXTT5=
EXTT6=
EXTT7=
EXTT8=
EXTT9=
EXTT10=
EXTT11=
EXTT12=
EXTT13=
PLAYORDER=
